# xmcd CD database file
#
# Track frame offsets:
#	187
#	6137
#	28237
#	40537
#	64687
#	86062
#	107587
#	129262
#	146137
#	164737
#	180562
#	196087
#	215587
#
# Disc length: 2959 seconds
#
# Revision: 0
# Processed by: cddbd v1.5.1PL2 Copyright (c) Steve Scherf et al.
# Submitted via: CDex 1.51
#
DISCID=b10b8d0d
DTITLE=来生たかお - Sparkle
DYEAR=1981
DGENRE=JPop
TTITLE0=Much more...
TTITLE1=Easy Drive
TTITLE2=メモリー・メロディー
TTITLE3=Goodbye Day
TTITLE4=夢の肌
TTITLE5=たそがれの苺
TTITLE6=Sparking head
TTITLE7=Good luck my girl
TTITLE8=気配
TTITLE9=窓辺の女（ひと）
TTITLE10=ゆっくりと夏が
TTITLE11=コラージュ
TTITLE12=Much more...
EXTD=YEAR: 1981
EXTT0=
EXTT1=
EXTT2=
EXTT3=
EXTT4=
EXTT5=
EXTT6=
EXTT7=
EXTT8=
EXTT9=
EXTT10=
EXTT11=
EXTT12=
PLAYORDER=
